# xmcd
# 
# Track frame offsets:
#     150
#     17377
#     30517
#     47644
#     67680
#     86267
#     98283
#     118012
#     135404
#     164098
#     186825
#     205878
#     225658
#     247278
#     270790
# 
# Disc length: 3856
# 
# Revision: 3
# Processed by: cddbd v1.5.2PL0 Copyright (c) Steve Scherf et al.
# Submitted via: fre:ac v1.0.27
# 
DISCID=b30f0e0f
DTITLE=Paul Reddick - Villanelle
DYEAR=2004
DGENRE=Blues
TTITLE0=Winter Birds
TTITLE1=Big Not Small
TTITLE2=Villanelle
TTITLE3=Luck In Love
TTITLE4=Waves
TTITLE5=So Long, Thank You, Goodbye
TTITLE6=Round This Time Of Year
TTITLE7=Five Silver Dollars
TTITLE8=Six Was The Six
TTITLE9=Hook's In the Water
TTITLE10=Blue Eventide
TTITLE11=Stone Of Indigo
TTITLE12=Burning Fuse
TTITLE13=Dog Catcher
TTITLE14=Some Afternoon Alone
EXTD=Bluesfestradio.com YEAR: 2004
EXTT0=
EXTT1=
EXTT2=
EXTT3=
EXTT4=
EXTT5=
EXTT6=
EXTT7=
EXTT8=
EXTT9=
EXTT10=
EXTT11=
EXTT12=
EXTT13=
EXTT14=
PLAYORDER=
